<mxfile host="app.diagrams.net" modified="2024-02-27T19:08:17.979Z" agent="Mozilla/5.0 (Windows NT 10.0; Win64; x64) AppleWebKit/537.36 (KHTML, like Gecko) Chrome/121.0.0.0 Safari/537.36" etag="cYHMerrb43UL8pdDV24e" version="23.1.7" type="device">
  <diagram name="PÃ¡gina-1" id="RTqwXJ_G9w6-Y4Lwh8_3">
    <mxGraphModel dx="2927" dy="2299" grid="1" gridSize="10" guides="1" tooltips="1" connect="1" arrows="1" fold="1" page="1" pageScale="1" pageWidth="827" pageHeight="1169" math="0" shadow="0">
      <root>
        <mxCell id="0" />
        <mxCell id="1" parent="0" />
        <mxCell id="YftYAWoawqL53MU_X5ik-1" value="" style="ellipse;shape=cloud;whiteSpace=wrap;html=1;" parent="1" vertex="1">
          <mxGeometry x="-590" y="-1070" width="160" height="110" as="geometry" />
        </mxCell>
        <mxCell id="YftYAWoawqL53MU_X5ik-2" value="&lt;font style=&quot;font-size: 18px;&quot;&gt;Internet&lt;/font&gt;" style="text;html=1;align=center;verticalAlign=middle;whiteSpace=wrap;rounded=0;" parent="1" vertex="1">
          <mxGeometry x="-550" y="-1040" width="90" height="50" as="geometry" />
        </mxCell>
        <mxCell id="YftYAWoawqL53MU_X5ik-5" value="" style="edgeStyle=orthogonalEdgeStyle;rounded=0;orthogonalLoop=1;jettySize=auto;html=1;exitX=0.875;exitY=0.5;exitDx=0;exitDy=0;exitPerimeter=0;endArrow=none;endFill=0;" parent="1" target="YftYAWoawqL53MU_X5ik-4" edge="1">
          <mxGeometry relative="1" as="geometry">
            <mxPoint x="-274.99999999999994" y="-885" as="targetPoint" />
            <mxPoint x="-444.99999999999994" y="-1010" as="sourcePoint" />
          </mxGeometry>
        </mxCell>
        <mxCell id="YftYAWoawqL53MU_X5ik-6" style="edgeStyle=orthogonalEdgeStyle;rounded=0;orthogonalLoop=1;jettySize=auto;html=1;endArrow=none;endFill=0;" parent="1" source="YftYAWoawqL53MU_X5ik-4" edge="1">
          <mxGeometry relative="1" as="geometry">
            <mxPoint x="-610" y="-915" as="targetPoint" />
            <Array as="points">
              <mxPoint x="-579" y="-914" />
            </Array>
          </mxGeometry>
        </mxCell>
        <mxCell id="YftYAWoawqL53MU_X5ik-4" value="" style="image;aspect=fixed;perimeter=ellipsePerimeter;html=1;align=center;shadow=0;dashed=0;spacingTop=3;image=img/lib/active_directory/modem.svg;" parent="1" vertex="1">
          <mxGeometry x="-379.99999999999994" y="-945" width="74.1" height="61.5" as="geometry" />
        </mxCell>
        <mxCell id="YftYAWoawqL53MU_X5ik-9" style="edgeStyle=orthogonalEdgeStyle;rounded=0;orthogonalLoop=1;jettySize=auto;html=1;exitX=0.5;exitY=1;exitDx=0;exitDy=0;endArrow=none;endFill=0;" parent="1" source="YftYAWoawqL53MU_X5ik-7" edge="1">
          <mxGeometry relative="1" as="geometry">
            <mxPoint x="-340" y="-845" as="targetPoint" />
            <Array as="points">
              <mxPoint x="-600" y="-854" />
              <mxPoint x="-469.99999999999994" y="-854" />
              <mxPoint x="-469.99999999999994" y="-855" />
              <mxPoint x="-339.99999999999994" y="-855" />
            </Array>
          </mxGeometry>
        </mxCell>
        <mxCell id="NQHfo12CLNS6lhZGebzu-62" style="edgeStyle=orthogonalEdgeStyle;rounded=0;orthogonalLoop=1;jettySize=auto;html=1;exitX=0;exitY=0.5;exitDx=0;exitDy=0;entryX=0.25;entryY=0;entryDx=0;entryDy=0;" edge="1" parent="1" source="YftYAWoawqL53MU_X5ik-7" target="NQHfo12CLNS6lhZGebzu-65">
          <mxGeometry relative="1" as="geometry">
            <mxPoint x="-800" y="-380" as="targetPoint" />
          </mxGeometry>
        </mxCell>
        <mxCell id="YftYAWoawqL53MU_X5ik-7" value="" style="image;html=1;image=img/lib/clip_art/computers/Server_Tower_128x128.png" parent="1" vertex="1">
          <mxGeometry x="-640" y="-954.25" width="80" height="80" as="geometry" />
        </mxCell>
        <mxCell id="YftYAWoawqL53MU_X5ik-12" style="edgeStyle=orthogonalEdgeStyle;rounded=0;orthogonalLoop=1;jettySize=auto;html=1;endArrow=none;endFill=0;exitX=-0.01;exitY=0.398;exitDx=0;exitDy=0;exitPerimeter=0;" parent="1" edge="1">
          <mxGeometry relative="1" as="geometry">
            <mxPoint x="-760" y="-845" as="targetPoint" />
            <mxPoint x="-380.8000000000002" y="-813.1600000000001" as="sourcePoint" />
            <Array as="points">
              <mxPoint x="-380.99999999999994" y="-845" />
              <mxPoint x="-569" y="-845" />
              <mxPoint x="-569" y="-844" />
            </Array>
          </mxGeometry>
        </mxCell>
        <mxCell id="YftYAWoawqL53MU_X5ik-16" style="edgeStyle=orthogonalEdgeStyle;rounded=0;orthogonalLoop=1;jettySize=auto;html=1;exitX=0;exitY=0.75;exitDx=0;exitDy=0;entryX=0.5;entryY=1;entryDx=0;entryDy=0;" parent="1" target="YftYAWoawqL53MU_X5ik-13" edge="1">
          <mxGeometry relative="1" as="geometry">
            <Array as="points">
              <mxPoint x="-670" y="-785" />
            </Array>
            <mxPoint x="-380" y="-785" as="sourcePoint" />
          </mxGeometry>
        </mxCell>
        <mxCell id="YftYAWoawqL53MU_X5ik-19" style="edgeStyle=orthogonalEdgeStyle;rounded=0;orthogonalLoop=1;jettySize=auto;html=1;exitX=0;exitY=1;exitDx=0;exitDy=0;entryX=0.25;entryY=1;entryDx=0;entryDy=0;" parent="1" edge="1">
          <mxGeometry relative="1" as="geometry">
            <Array as="points">
              <mxPoint x="-750" y="-715" />
            </Array>
            <mxPoint x="-380" y="-764.9999999999999" as="sourcePoint" />
            <mxPoint x="-750" y="-725" as="targetPoint" />
          </mxGeometry>
        </mxCell>
        <mxCell id="YftYAWoawqL53MU_X5ik-13" value="" style="image;html=1;image=img/lib/clip_art/computers/Printer_128x128.png" parent="1" vertex="1">
          <mxGeometry x="-700" y="-835" width="60" height="60" as="geometry" />
        </mxCell>
        <mxCell id="YftYAWoawqL53MU_X5ik-14" value="" style="image;html=1;image=img/lib/clip_art/computers/Printer_128x128.png" parent="1" vertex="1">
          <mxGeometry x="-780" y="-835" width="60" height="60" as="geometry" />
        </mxCell>
        <mxCell id="YftYAWoawqL53MU_X5ik-15" value="" style="image;html=1;image=img/lib/clip_art/computers/Printer_128x128.png" parent="1" vertex="1">
          <mxGeometry x="-761.3" y="-785" width="60" height="60" as="geometry" />
        </mxCell>
        <mxCell id="YftYAWoawqL53MU_X5ik-20" value="" style="image;points=[];aspect=fixed;html=1;align=center;shadow=0;dashed=0;image=img/lib/allied_telesis/computer_and_terminals/Personal_Computer_with_Server.svg;" parent="1" vertex="1">
          <mxGeometry x="-180" y="-740" width="62.400000000000006" height="62.400000000000006" as="geometry" />
        </mxCell>
        <mxCell id="YftYAWoawqL53MU_X5ik-22" value="" style="image;points=[];aspect=fixed;html=1;align=center;shadow=0;dashed=0;image=img/lib/allied_telesis/computer_and_terminals/Personal_Computer_with_Server.svg;" parent="1" vertex="1">
          <mxGeometry x="-300" y="-897.4" width="62.400000000000006" height="62.400000000000006" as="geometry" />
        </mxCell>
        <mxCell id="YftYAWoawqL53MU_X5ik-23" value="" style="image;points=[];aspect=fixed;html=1;align=center;shadow=0;dashed=0;image=img/lib/allied_telesis/computer_and_terminals/Personal_Computer_with_Server.svg;" parent="1" vertex="1">
          <mxGeometry x="-130" y="-890" width="62.400000000000006" height="62.400000000000006" as="geometry" />
        </mxCell>
        <mxCell id="NQHfo12CLNS6lhZGebzu-30" style="edgeStyle=orthogonalEdgeStyle;rounded=0;orthogonalLoop=1;jettySize=auto;html=1;exitX=0.5;exitY=0;exitDx=0;exitDy=0;" edge="1" parent="1" source="NQHfo12CLNS6lhZGebzu-8" target="NQHfo12CLNS6lhZGebzu-25">
          <mxGeometry relative="1" as="geometry" />
        </mxCell>
        <mxCell id="NQHfo12CLNS6lhZGebzu-32" style="edgeStyle=orthogonalEdgeStyle;rounded=0;orthogonalLoop=1;jettySize=auto;html=1;exitX=1;exitY=0;exitDx=0;exitDy=0;" edge="1" parent="1" source="NQHfo12CLNS6lhZGebzu-8">
          <mxGeometry relative="1" as="geometry">
            <mxPoint x="-270.6" y="-500" as="targetPoint" />
          </mxGeometry>
        </mxCell>
        <mxCell id="NQHfo12CLNS6lhZGebzu-33" style="edgeStyle=orthogonalEdgeStyle;rounded=0;orthogonalLoop=1;jettySize=auto;html=1;exitX=0.75;exitY=0;exitDx=0;exitDy=0;" edge="1" parent="1" source="NQHfo12CLNS6lhZGebzu-8" target="NQHfo12CLNS6lhZGebzu-26">
          <mxGeometry relative="1" as="geometry">
            <Array as="points">
              <mxPoint x="-480.6" y="-490" />
              <mxPoint x="-379.6" y="-490" />
            </Array>
          </mxGeometry>
        </mxCell>
        <mxCell id="NQHfo12CLNS6lhZGebzu-35" style="edgeStyle=orthogonalEdgeStyle;rounded=0;orthogonalLoop=1;jettySize=auto;html=1;exitX=1;exitY=0.5;exitDx=0;exitDy=0;entryX=0;entryY=0.5;entryDx=0;entryDy=0;" edge="1" parent="1" source="NQHfo12CLNS6lhZGebzu-8" target="NQHfo12CLNS6lhZGebzu-34">
          <mxGeometry relative="1" as="geometry" />
        </mxCell>
        <mxCell id="NQHfo12CLNS6lhZGebzu-8" value="" style="image;html=1;image=img/lib/clip_art/networking/Switch_128x128.png" vertex="1" parent="1">
          <mxGeometry x="-540.6" y="-454.25" width="80" height="80" as="geometry" />
        </mxCell>
        <mxCell id="NQHfo12CLNS6lhZGebzu-13" style="edgeStyle=orthogonalEdgeStyle;rounded=0;orthogonalLoop=1;jettySize=auto;html=1;exitX=0.25;exitY=1;exitDx=0;exitDy=0;" edge="1" parent="1" source="NQHfo12CLNS6lhZGebzu-12">
          <mxGeometry relative="1" as="geometry">
            <mxPoint x="-370" y="-740" as="targetPoint" />
          </mxGeometry>
        </mxCell>
        <mxCell id="NQHfo12CLNS6lhZGebzu-17" style="edgeStyle=orthogonalEdgeStyle;rounded=0;orthogonalLoop=1;jettySize=auto;html=1;exitX=1;exitY=0.5;exitDx=0;exitDy=0;" edge="1" parent="1" source="NQHfo12CLNS6lhZGebzu-12" target="NQHfo12CLNS6lhZGebzu-18">
          <mxGeometry relative="1" as="geometry">
            <mxPoint x="-90" y="-970" as="targetPoint" />
          </mxGeometry>
        </mxCell>
        <mxCell id="NQHfo12CLNS6lhZGebzu-22" style="edgeStyle=orthogonalEdgeStyle;rounded=0;orthogonalLoop=1;jettySize=auto;html=1;exitX=0.75;exitY=1;exitDx=0;exitDy=0;" edge="1" parent="1" source="NQHfo12CLNS6lhZGebzu-12">
          <mxGeometry relative="1" as="geometry">
            <mxPoint x="-160" y="-750" as="targetPoint" />
          </mxGeometry>
        </mxCell>
        <mxCell id="NQHfo12CLNS6lhZGebzu-12" value="" style="image;html=1;image=img/lib/clip_art/networking/Switch_128x128.png" vertex="1" parent="1">
          <mxGeometry x="-380" y="-845" width="80" height="80" as="geometry" />
        </mxCell>
        <mxCell id="NQHfo12CLNS6lhZGebzu-14" style="edgeStyle=orthogonalEdgeStyle;rounded=0;orthogonalLoop=1;jettySize=auto;html=1;exitX=1;exitY=0;exitDx=0;exitDy=0;entryX=0.311;entryY=0.984;entryDx=0;entryDy=0;entryPerimeter=0;" edge="1" parent="1" source="NQHfo12CLNS6lhZGebzu-12" target="YftYAWoawqL53MU_X5ik-23">
          <mxGeometry relative="1" as="geometry" />
        </mxCell>
        <mxCell id="NQHfo12CLNS6lhZGebzu-15" style="edgeStyle=orthogonalEdgeStyle;rounded=0;orthogonalLoop=1;jettySize=auto;html=1;exitX=1;exitY=0.25;exitDx=0;exitDy=0;entryX=0.567;entryY=1.038;entryDx=0;entryDy=0;entryPerimeter=0;" edge="1" parent="1" source="NQHfo12CLNS6lhZGebzu-12" target="YftYAWoawqL53MU_X5ik-22">
          <mxGeometry relative="1" as="geometry" />
        </mxCell>
        <mxCell id="NQHfo12CLNS6lhZGebzu-18" value="" style="image;points=[];aspect=fixed;html=1;align=center;shadow=0;dashed=0;image=img/lib/allied_telesis/computer_and_terminals/Personal_Computer_Wireless.svg;" vertex="1" parent="1">
          <mxGeometry x="-260" y="-750" width="63" height="64.2" as="geometry" />
        </mxCell>
        <mxCell id="NQHfo12CLNS6lhZGebzu-23" value="" style="image;points=[];aspect=fixed;html=1;align=center;shadow=0;dashed=0;image=img/lib/allied_telesis/computer_and_terminals/Personal_Computer_Wireless.svg;" vertex="1" parent="1">
          <mxGeometry x="-680.6" y="-580" width="63" height="64.2" as="geometry" />
        </mxCell>
        <mxCell id="NQHfo12CLNS6lhZGebzu-24" value="" style="image;points=[];aspect=fixed;html=1;align=center;shadow=0;dashed=0;image=img/lib/allied_telesis/computer_and_terminals/Personal_Computer_Wireless.svg;" vertex="1" parent="1">
          <mxGeometry x="-600.6" y="-580" width="63" height="64.2" as="geometry" />
        </mxCell>
        <mxCell id="NQHfo12CLNS6lhZGebzu-25" value="" style="image;points=[];aspect=fixed;html=1;align=center;shadow=0;dashed=0;image=img/lib/allied_telesis/computer_and_terminals/Personal_Computer_with_Server.svg;" vertex="1" parent="1">
          <mxGeometry x="-510.6" y="-580" width="62.400000000000006" height="62.400000000000006" as="geometry" />
        </mxCell>
        <mxCell id="NQHfo12CLNS6lhZGebzu-26" value="" style="image;points=[];aspect=fixed;html=1;align=center;shadow=0;dashed=0;image=img/lib/allied_telesis/computer_and_terminals/Personal_Computer_with_Server.svg;" vertex="1" parent="1">
          <mxGeometry x="-410.6" y="-580" width="62.400000000000006" height="62.400000000000006" as="geometry" />
        </mxCell>
        <mxCell id="NQHfo12CLNS6lhZGebzu-27" value="" style="image;points=[];aspect=fixed;html=1;align=center;shadow=0;dashed=0;image=img/lib/allied_telesis/computer_and_terminals/Personal_Computer_Wireless.svg;" vertex="1" parent="1">
          <mxGeometry x="-300.6" y="-570" width="63" height="64.2" as="geometry" />
        </mxCell>
        <mxCell id="NQHfo12CLNS6lhZGebzu-28" style="edgeStyle=orthogonalEdgeStyle;rounded=0;orthogonalLoop=1;jettySize=auto;html=1;exitX=0;exitY=0;exitDx=0;exitDy=0;entryX=0.416;entryY=0.963;entryDx=0;entryDy=0;entryPerimeter=0;" edge="1" parent="1" source="NQHfo12CLNS6lhZGebzu-8" target="NQHfo12CLNS6lhZGebzu-23">
          <mxGeometry relative="1" as="geometry" />
        </mxCell>
        <mxCell id="NQHfo12CLNS6lhZGebzu-29" style="edgeStyle=orthogonalEdgeStyle;rounded=0;orthogonalLoop=1;jettySize=auto;html=1;exitX=0.25;exitY=0;exitDx=0;exitDy=0;entryX=0.746;entryY=0.988;entryDx=0;entryDy=0;entryPerimeter=0;" edge="1" parent="1" source="NQHfo12CLNS6lhZGebzu-8" target="NQHfo12CLNS6lhZGebzu-24">
          <mxGeometry relative="1" as="geometry" />
        </mxCell>
        <mxCell id="NQHfo12CLNS6lhZGebzu-38" style="edgeStyle=orthogonalEdgeStyle;rounded=0;orthogonalLoop=1;jettySize=auto;html=1;exitX=1;exitY=0.5;exitDx=0;exitDy=0;entryX=0.5;entryY=0;entryDx=0;entryDy=0;" edge="1" parent="1" source="NQHfo12CLNS6lhZGebzu-34" target="NQHfo12CLNS6lhZGebzu-37">
          <mxGeometry relative="1" as="geometry" />
        </mxCell>
        <mxCell id="NQHfo12CLNS6lhZGebzu-39" style="edgeStyle=orthogonalEdgeStyle;rounded=0;orthogonalLoop=1;jettySize=auto;html=1;exitX=0;exitY=0.75;exitDx=0;exitDy=0;" edge="1" parent="1" source="NQHfo12CLNS6lhZGebzu-34" target="NQHfo12CLNS6lhZGebzu-36">
          <mxGeometry relative="1" as="geometry" />
        </mxCell>
        <mxCell id="NQHfo12CLNS6lhZGebzu-34" value="" style="image;html=1;image=img/lib/clip_art/networking/Print_Server_128x128.png" vertex="1" parent="1">
          <mxGeometry x="-400.6" y="-445" width="80" height="80" as="geometry" />
        </mxCell>
        <mxCell id="NQHfo12CLNS6lhZGebzu-36" value="" style="image;html=1;image=img/lib/clip_art/computers/Printer_128x128.png" vertex="1" parent="1">
          <mxGeometry x="-460.6" y="-355" width="80" height="80" as="geometry" />
        </mxCell>
        <mxCell id="NQHfo12CLNS6lhZGebzu-37" value="" style="image;html=1;image=img/lib/clip_art/computers/Printer_128x128.png" vertex="1" parent="1">
          <mxGeometry x="-320.6" y="-355" width="80" height="80" as="geometry" />
        </mxCell>
        <mxCell id="NQHfo12CLNS6lhZGebzu-40" value="" style="image;html=1;image=img/lib/clip_art/computers/Netbook_128x128.png" vertex="1" parent="1">
          <mxGeometry x="-550" y="-150" width="80" height="80" as="geometry" />
        </mxCell>
        <mxCell id="NQHfo12CLNS6lhZGebzu-41" value="" style="image;html=1;image=img/lib/clip_art/computers/Netbook_128x128.png" vertex="1" parent="1">
          <mxGeometry x="-450" y="-150" width="80" height="80" as="geometry" />
        </mxCell>
        <mxCell id="NQHfo12CLNS6lhZGebzu-42" value="" style="image;html=1;image=img/lib/clip_art/computers/Netbook_128x128.png" vertex="1" parent="1">
          <mxGeometry x="-348.2" y="-150" width="80" height="80" as="geometry" />
        </mxCell>
        <mxCell id="NQHfo12CLNS6lhZGebzu-61" style="edgeStyle=orthogonalEdgeStyle;rounded=0;orthogonalLoop=1;jettySize=auto;html=1;exitX=0;exitY=0.5;exitDx=0;exitDy=0;" edge="1" parent="1" source="NQHfo12CLNS6lhZGebzu-43">
          <mxGeometry relative="1" as="geometry">
            <mxPoint x="-210" y="181" as="targetPoint" />
          </mxGeometry>
        </mxCell>
        <mxCell id="NQHfo12CLNS6lhZGebzu-43" value="" style="image;html=1;image=img/lib/clip_art/computers/Printer_128x128.png" vertex="1" parent="1">
          <mxGeometry x="-160" y="140" width="90" height="80" as="geometry" />
        </mxCell>
        <mxCell id="NQHfo12CLNS6lhZGebzu-45" value="" style="image;points=[];aspect=fixed;html=1;align=center;shadow=0;dashed=0;image=img/lib/allied_telesis/computer_and_terminals/Personal_Computer_with_Server.svg;" vertex="1" parent="1">
          <mxGeometry x="-590" y="140" width="62.400000000000006" height="62.400000000000006" as="geometry" />
        </mxCell>
        <mxCell id="NQHfo12CLNS6lhZGebzu-46" value="" style="image;points=[];aspect=fixed;html=1;align=center;shadow=0;dashed=0;image=img/lib/allied_telesis/computer_and_terminals/Personal_Computer_with_Server.svg;" vertex="1" parent="1">
          <mxGeometry x="-481" y="140" width="62.400000000000006" height="62.400000000000006" as="geometry" />
        </mxCell>
        <mxCell id="NQHfo12CLNS6lhZGebzu-47" value="" style="image;points=[];aspect=fixed;html=1;align=center;shadow=0;dashed=0;image=img/lib/allied_telesis/computer_and_terminals/Personal_Computer_with_Server.svg;" vertex="1" parent="1">
          <mxGeometry x="-374.15" y="148.8" width="62.400000000000006" height="62.400000000000006" as="geometry" />
        </mxCell>
        <mxCell id="NQHfo12CLNS6lhZGebzu-48" value="" style="image;points=[];aspect=fixed;html=1;align=center;shadow=0;dashed=0;image=img/lib/allied_telesis/computer_and_terminals/Personal_Computer_with_Server.svg;" vertex="1" parent="1">
          <mxGeometry x="-280" y="148.8" width="62.400000000000006" height="62.400000000000006" as="geometry" />
        </mxCell>
        <mxCell id="NQHfo12CLNS6lhZGebzu-50" style="edgeStyle=orthogonalEdgeStyle;rounded=0;orthogonalLoop=1;jettySize=auto;html=1;exitX=0;exitY=0;exitDx=0;exitDy=0;entryX=0.5;entryY=1;entryDx=0;entryDy=0;" edge="1" parent="1" source="NQHfo12CLNS6lhZGebzu-49" target="NQHfo12CLNS6lhZGebzu-40">
          <mxGeometry relative="1" as="geometry" />
        </mxCell>
        <mxCell id="NQHfo12CLNS6lhZGebzu-52" style="edgeStyle=orthogonalEdgeStyle;rounded=0;orthogonalLoop=1;jettySize=auto;html=1;exitX=0.5;exitY=0;exitDx=0;exitDy=0;entryX=0.5;entryY=1;entryDx=0;entryDy=0;" edge="1" parent="1" source="NQHfo12CLNS6lhZGebzu-49" target="NQHfo12CLNS6lhZGebzu-41">
          <mxGeometry relative="1" as="geometry" />
        </mxCell>
        <mxCell id="NQHfo12CLNS6lhZGebzu-53" style="edgeStyle=orthogonalEdgeStyle;rounded=0;orthogonalLoop=1;jettySize=auto;html=1;exitX=1;exitY=0;exitDx=0;exitDy=0;entryX=0.5;entryY=1;entryDx=0;entryDy=0;" edge="1" parent="1" source="NQHfo12CLNS6lhZGebzu-49" target="NQHfo12CLNS6lhZGebzu-42">
          <mxGeometry relative="1" as="geometry" />
        </mxCell>
        <mxCell id="NQHfo12CLNS6lhZGebzu-55" style="edgeStyle=orthogonalEdgeStyle;rounded=0;orthogonalLoop=1;jettySize=auto;html=1;exitX=0;exitY=0.75;exitDx=0;exitDy=0;" edge="1" parent="1" source="NQHfo12CLNS6lhZGebzu-49">
          <mxGeometry relative="1" as="geometry">
            <mxPoint x="-580" y="130" as="targetPoint" />
          </mxGeometry>
        </mxCell>
        <mxCell id="NQHfo12CLNS6lhZGebzu-56" style="edgeStyle=orthogonalEdgeStyle;rounded=0;orthogonalLoop=1;jettySize=auto;html=1;exitX=0;exitY=1;exitDx=0;exitDy=0;" edge="1" parent="1" source="NQHfo12CLNS6lhZGebzu-49" target="NQHfo12CLNS6lhZGebzu-46">
          <mxGeometry relative="1" as="geometry" />
        </mxCell>
        <mxCell id="NQHfo12CLNS6lhZGebzu-57" style="edgeStyle=orthogonalEdgeStyle;rounded=0;orthogonalLoop=1;jettySize=auto;html=1;exitX=0.5;exitY=1;exitDx=0;exitDy=0;" edge="1" parent="1" source="NQHfo12CLNS6lhZGebzu-49" target="NQHfo12CLNS6lhZGebzu-47">
          <mxGeometry relative="1" as="geometry" />
        </mxCell>
        <mxCell id="NQHfo12CLNS6lhZGebzu-58" style="edgeStyle=orthogonalEdgeStyle;rounded=0;orthogonalLoop=1;jettySize=auto;html=1;exitX=0.75;exitY=1;exitDx=0;exitDy=0;" edge="1" parent="1" source="NQHfo12CLNS6lhZGebzu-49">
          <mxGeometry relative="1" as="geometry">
            <mxPoint x="-250" y="130" as="targetPoint" />
          </mxGeometry>
        </mxCell>
        <mxCell id="NQHfo12CLNS6lhZGebzu-69" style="edgeStyle=orthogonalEdgeStyle;rounded=0;orthogonalLoop=1;jettySize=auto;html=1;exitX=1;exitY=0.5;exitDx=0;exitDy=0;entryX=0;entryY=0.5;entryDx=0;entryDy=0;" edge="1" parent="1" source="NQHfo12CLNS6lhZGebzu-49">
          <mxGeometry relative="1" as="geometry">
            <mxPoint x="-268.5" y="30" as="targetPoint" />
          </mxGeometry>
        </mxCell>
        <mxCell id="NQHfo12CLNS6lhZGebzu-49" value="" style="image;html=1;image=img/lib/clip_art/networking/Switch_128x128.png" vertex="1" parent="1">
          <mxGeometry x="-450" y="-18" width="80" height="80" as="geometry" />
        </mxCell>
        <mxCell id="NQHfo12CLNS6lhZGebzu-51" style="edgeStyle=orthogonalEdgeStyle;rounded=0;orthogonalLoop=1;jettySize=auto;html=1;" edge="1" parent="1" source="NQHfo12CLNS6lhZGebzu-41" target="NQHfo12CLNS6lhZGebzu-41">
          <mxGeometry relative="1" as="geometry" />
        </mxCell>
        <mxCell id="NQHfo12CLNS6lhZGebzu-67" style="edgeStyle=orthogonalEdgeStyle;rounded=0;orthogonalLoop=1;jettySize=auto;html=1;exitX=1;exitY=0.5;exitDx=0;exitDy=0;entryX=0.25;entryY=1;entryDx=0;entryDy=0;" edge="1" parent="1" source="NQHfo12CLNS6lhZGebzu-65" target="NQHfo12CLNS6lhZGebzu-8">
          <mxGeometry relative="1" as="geometry" />
        </mxCell>
        <mxCell id="NQHfo12CLNS6lhZGebzu-70" style="edgeStyle=orthogonalEdgeStyle;rounded=0;orthogonalLoop=1;jettySize=auto;html=1;exitX=0.5;exitY=1;exitDx=0;exitDy=0;entryX=0;entryY=0.5;entryDx=0;entryDy=0;" edge="1" parent="1" source="NQHfo12CLNS6lhZGebzu-65" target="NQHfo12CLNS6lhZGebzu-49">
          <mxGeometry relative="1" as="geometry" />
        </mxCell>
        <mxCell id="NQHfo12CLNS6lhZGebzu-65" value="" style="image;html=1;image=img/lib/clip_art/networking/Switch_128x128.png" vertex="1" parent="1">
          <mxGeometry x="-820" y="-230" width="80" height="80" as="geometry" />
        </mxCell>
        <mxCell id="NQHfo12CLNS6lhZGebzu-71" value="" style="verticalLabelPosition=bottom;sketch=0;aspect=fixed;html=1;verticalAlign=top;strokeColor=none;align=center;outlineConnect=0;shape=mxgraph.citrix.file_server;" vertex="1" parent="1">
          <mxGeometry x="-260" y="-10" width="71" height="97" as="geometry" />
        </mxCell>
      </root>
    </mxGraphModel>
  </diagram>
</mxfile>
